<svg width="1151" height="512" viewBox="0 0 1151 512" fill="none" xmlns="http://www.w3.org/2000/svg">
<g clip-path="url(#clip0)">
<path d="M239.615 131.993L242.938 133.378C244.016 133.827 242.358 135.202 242.358 136.37C242.358 137.31 166.325 116.382 128.309 105.8L98.9152 101.097C98.9152 98.2752 48.7495 95.2182 23.6667 94.0424L-9.56638 95.081C-11.9221 95.1546 -13.8306 93.1857 -13.6835 90.8334L-12.8533 77.5494C-12.8066 76.8022 -12.5511 76.0831 -12.116 75.4739L-8.27725 70.0997C-7.4296 68.913 -6.0033 68.2816 -4.55495 68.452L9.55221 70.1117C11.5667 70.3487 13.0848 72.0559 13.0848 74.0843V78.2848C13.0848 80.494 14.8757 82.2848 17.0848 82.2848H17.3674C19.0348 82.2848 20.5272 83.3191 21.1127 84.8804L23.6667 91.6909L21.52 82.0309C21.3853 81.4247 21.3936 80.7955 21.5442 80.193L23.2916 73.2033C23.5329 72.2379 24.1254 71.3972 24.9534 70.8452L29.4291 67.8614C30.2603 67.3073 31.2687 67.0842 32.2561 67.2361L44.0987 69.0581C45.3038 69.2435 46.3586 69.9684 46.9635 71.027L48.461 73.6477C49.6547 75.7367 52.4092 76.3067 54.334 74.8631L58.8479 71.4777C59.662 70.8672 60.6782 70.5898 61.6896 70.7022L69.1286 71.5288C70.1364 71.6407 71.064 72.1313 71.7239 72.9011L76.4081 78.366C77.2509 79.3493 78.5176 79.8637 79.8073 79.7464L89.9415 78.8252C90.4328 78.7805 90.9282 78.8271 91.4025 78.9626L96.014 80.2802C97.7312 80.7708 98.9152 82.3404 98.9152 84.1263V98.7455L99.7361 88.8936C99.9282 86.5891 102.029 84.927 104.316 85.2701L121.011 87.7743C122.587 88.0107 123.872 89.1598 124.282 90.6994L128.309 105.8L131.377 95.5731C131.672 94.5904 132.333 93.7586 133.224 93.2495L138.854 90.0323C139.639 89.5836 140.553 89.4142 141.447 89.5517L154.43 91.5491C155.036 91.6424 155.613 91.8739 156.115 92.2257L166.188 99.2761C166.79 99.698 167.495 99.9454 168.229 99.9911C174.784 100.399 186.209 101.097 187.097 101.097C187.945 101.097 192.683 105.56 195.617 108.448C196.196 109.019 196.932 109.405 197.732 109.551L208.762 111.556C209.208 111.637 209.636 111.794 210.031 112.017C212.932 113.656 217.965 116.382 218.842 116.382C219.658 116.382 229.369 119.327 236.024 121.388C237.696 121.905 238.83 123.452 238.83 125.201V130.817C238.83 131.332 239.14 131.796 239.615 131.993Z" fill="#B9CCD1"/>
<path d="M128.309 105.8L131.377 95.5731C131.672 94.5904 132.333 93.7586 133.224 93.2495L138.854 90.0323C139.639 89.5836 140.553 89.4142 141.447 89.5517L154.43 91.5491C155.036 91.6424 155.613 91.8739 156.115 92.2257L166.188 99.2761C166.79 99.698 167.495 99.9454 168.229 99.9911C174.784 100.399 186.209 101.097 187.097 101.097C187.945 101.097 192.683 105.56 195.617 108.448C196.196 109.019 196.932 109.405 197.732 109.551L208.762 111.556C209.208 111.637 209.636 111.794 210.031 112.017C212.932 113.656 217.965 116.382 218.842 116.382C219.658 116.382 229.369 119.327 236.024 121.388C237.696 121.905 238.83 123.452 238.83 125.201V130.817C238.83 131.332 239.14 131.796 239.615 131.993L242.938 133.378C244.016 133.827 242.358 135.202 242.358 136.37V136.37C242.358 137.31 166.325 116.382 128.309 105.8ZM128.309 105.8L124.282 90.6994C123.872 89.1598 122.586 88.0107 121.011 87.7743L104.316 85.2701C102.029 84.927 99.9282 86.5891 99.7361 88.8936L98.9152 98.7455M128.309 105.8L98.9152 101.097M98.9152 98.7455V84.1263C98.9152 82.3404 97.7312 80.7708 96.014 80.2802L91.4025 78.9626C90.9282 78.8271 90.4328 78.7805 89.9415 78.8252L79.8073 79.7464C78.5176 79.8637 77.2509 79.3493 76.4081 78.366L71.7239 72.9011C71.064 72.1313 70.1364 71.6407 69.1286 71.5288L61.6896 70.7022C60.6782 70.5898 59.662 70.8672 58.8479 71.4777L54.334 74.8631C52.4092 76.3067 49.6547 75.7367 48.461 73.6477L46.9635 71.027C46.3586 69.9684 45.3038 69.2435 44.0987 69.0581L32.2561 67.2361C31.2687 67.0842 30.2603 67.3073 29.4291 67.8614L24.9534 70.8452C24.1254 71.3972 23.5329 72.2379 23.2916 73.2033L21.5442 80.193C21.3936 80.7955 21.3853 81.4247 21.52 82.0309L23.6667 91.6909M98.9152 98.7455V101.097M23.6667 91.6909L21.1127 84.8804C20.5272 83.3191 19.0348 82.2848 17.3674 82.2848H17.0848C14.8757 82.2848 13.0848 80.494 13.0848 78.2848V74.0843C13.0848 72.0559 11.5667 70.3487 9.55221 70.1117L-4.55495 68.452C-6.0033 68.2816 -7.4296 68.913 -8.27725 70.0997L-12.116 75.4739C-12.5511 76.0831 -12.8066 76.8022 -12.8533 77.5494L-13.6835 90.8334C-13.8306 93.1857 -11.9221 95.1546 -9.56638 95.081L23.6667 94.0424M23.6667 91.6909V94.0424M23.6667 94.0424C48.7495 95.2182 98.9152 98.2752 98.9152 101.097" stroke="black"/>
<path d="M145.945 289.218C-64.9557 169.708 -407.212 436.327 -581.699 613.161C-594.345 625.976 -616.602 617.383 -616.976 599.383L-622.74 321.724C-622.899 314.067 -618.672 306.992 -611.854 303.503L-521.885 257.473L-360.806 186.927L-270.334 143.409C-268.733 142.639 -267.036 142.085 -265.288 141.763L-2.20471 93.3007C-0.639526 93.0124 0.954529 92.9119 2.54352 93.0014L81.9515 97.4751C83.0687 97.5381 84.1786 97.6946 85.2697 97.9432L176.515 118.733L263.031 141.804C264.14 142.1 265.271 142.299 266.414 142.402C284.738 144.056 321.575 147.745 335.242 150.479C348.228 153.076 378.811 193.722 395.821 218.511C398.492 222.404 399.617 227.125 399.085 231.817L397.11 249.222C396.41 255.388 398.612 261.529 403.07 265.845L418.721 281L434.725 293.795C439.473 297.59 442.236 303.338 442.236 309.416V324.253C442.236 325.746 442.069 327.235 441.738 328.691L439.145 340.084C438.855 341.358 438.441 342.601 437.909 343.794L420.365 383.122C419.28 385.554 417.721 387.744 415.778 389.565L405.679 399.033C401.972 402.508 397.081 404.442 392 404.442H386.279C382.881 404.442 379.538 403.576 376.567 401.926L329.722 375.901C328.701 375.334 327.633 374.857 326.529 374.476L228.098 340.535C226.636 340.03 225.236 339.358 223.929 338.531L145.945 289.218Z" fill="#ABD1CB" stroke="black" stroke-width="4"/>
<path d="M322.353 173.106L312.154 173.652C310.305 173.752 308.765 175.107 308.433 176.928L307.651 181.208C307.551 181.754 307.567 182.315 307.695 182.855L309.753 191.48C309.819 191.754 309.918 192.019 310.047 192.27C310.468 193.081 311.192 193.693 312.061 193.972L317.773 195.808C318.169 195.935 318.582 196 318.997 196H325.008C325.683 196 326.347 195.831 326.933 195.496C329.023 194.301 332 192.462 332 191.893V183.503C332 182.555 331.663 181.639 331.05 180.916L325.617 174.512C324.808 173.56 323.601 173.039 322.353 173.106Z" fill="black" stroke="black"/>
<path d="M263.008 393V108.625H343.281C368.021 108.625 389.896 114.094 408.906 125.031C427.917 135.969 442.565 151.529 452.852 171.711C463.268 191.893 468.542 215.07 468.672 241.242V259.406C468.672 286.229 463.464 309.732 453.047 329.914C442.76 350.096 427.982 365.591 408.711 376.398C389.57 387.206 367.24 392.74 341.719 393H263.008ZM300.508 139.484V362.336H339.961C368.867 362.336 391.328 353.352 407.344 335.383C423.49 317.414 431.562 291.828 431.562 258.625V242.023C431.562 209.732 423.945 184.667 408.711 166.828C393.607 148.859 372.122 139.745 344.258 139.484H300.508ZM559.102 393H522.969V181.672H559.102V393ZM520.039 125.617C520.039 119.758 521.797 114.81 525.312 110.773C528.958 106.737 534.297 104.719 541.328 104.719C548.359 104.719 553.698 106.737 557.344 110.773C560.99 114.81 562.812 119.758 562.812 125.617C562.812 131.477 560.99 136.359 557.344 140.266C553.698 144.172 548.359 146.125 541.328 146.125C534.297 146.125 528.958 144.172 525.312 140.266C521.797 136.359 520.039 131.477 520.039 125.617ZM795.625 289.68C795.625 321.841 788.268 347.753 773.555 367.414C758.841 387.076 738.919 396.906 713.789 396.906C688.138 396.906 667.956 388.768 653.242 372.492V474.25H617.109V181.672H650.117L651.875 205.109C666.589 186.88 687.031 177.766 713.203 177.766C738.594 177.766 758.646 187.336 773.359 206.477C788.203 225.617 795.625 252.245 795.625 286.359V289.68ZM759.492 285.578C759.492 261.75 754.414 242.935 744.258 229.133C734.102 215.331 720.169 208.43 702.461 208.43C680.586 208.43 664.18 218.13 653.242 237.531V338.508C664.049 357.779 680.586 367.414 702.852 367.414C720.169 367.414 733.906 360.578 744.062 346.906C754.349 333.104 759.492 312.661 759.492 285.578ZM880.977 393H844.844V93H880.977V393ZM929.414 285.383C929.414 264.68 933.451 246.06 941.523 229.523C949.727 212.987 961.055 200.227 975.508 191.242C990.091 182.258 1006.69 177.766 1025.31 177.766C1054.09 177.766 1077.33 187.727 1095.04 207.648C1112.88 227.57 1121.8 254.068 1121.8 287.141V289.68C1121.8 310.253 1117.83 328.742 1109.88 345.148C1102.07 361.424 1090.81 374.12 1076.09 383.234C1061.51 392.349 1044.71 396.906 1025.7 396.906C997.057 396.906 973.815 386.945 955.977 367.023C938.268 347.102 929.414 320.734 929.414 287.922V285.383ZM965.742 289.68C965.742 313.117 971.146 331.932 981.953 346.125C992.891 360.318 1007.47 367.414 1025.7 367.414C1044.06 367.414 1058.65 360.253 1069.45 345.93C1080.26 331.477 1085.66 311.294 1085.66 285.383C1085.66 262.206 1080.13 243.456 1069.06 229.133C1058.12 214.68 1043.54 207.453 1025.31 207.453C1007.47 207.453 993.086 214.549 982.148 228.742C971.211 242.935 965.742 263.247 965.742 289.68Z" fill="#666666"/>
</g>
<defs>
<clipPath id="clip0">
<rect width="1151" height="512" fill="white"/>
</clipPath>
</defs>
</svg>
