<svg width="443" height="211" viewBox="0 0 443 211" fill="none" xmlns="http://www.w3.org/2000/svg">
<g clip-path="url(#clip0)">
<path d="M22.09 14.9533L24.2866 15.8685C24.999 16.1654 23.9028 17.0737 23.9028 17.8455C23.9028 18.4671 -26.3459 4.63577 -51.4702 -2.35761L-70.8963 -5.46578C-70.8963 -7.33068 -104.05 -9.35099 -120.627 -10.128L-141.101 -9.48822C-143.457 -9.4146 -145.365 -11.3835 -145.218 -13.7358L-144.787 -20.6404C-144.74 -21.3875 -144.485 -22.1066 -144.049 -22.7158L-142.204 -25.2991C-141.357 -26.4858 -139.93 -27.1171 -138.482 -26.9467L-131.153 -26.0845C-129.139 -25.8475 -127.62 -24.1402 -127.62 -22.1119V-20.6523C-127.62 -19.1314 -126.387 -17.8985 -124.867 -17.8985C-123.719 -17.8985 -122.691 -17.1864 -122.288 -16.1116L-120.627 -11.6821L-121.976 -17.7537C-122.111 -18.3599 -122.103 -18.9891 -121.952 -19.5916L-121.002 -23.3916C-120.761 -24.3569 -120.168 -25.1977 -119.34 -25.7496L-117.257 -27.1386C-116.426 -27.6927 -115.417 -27.9158 -114.43 -27.7639L-107.713 -26.7304C-106.544 -26.5507 -105.521 -25.8478 -104.935 -24.8213C-103.777 -22.7957 -101.107 -22.243 -99.2402 -23.6428L-97.806 -24.7184C-96.9919 -25.329 -95.9756 -25.6063 -94.9642 -25.4939L-91.1136 -25.0661C-90.1059 -24.9541 -89.1782 -24.4636 -88.5183 -23.6937L-86.2264 -21.0198C-85.3836 -20.0366 -84.117 -19.5222 -82.8273 -19.6394L-77.0789 -20.162C-76.5876 -20.2067 -76.0923 -20.1601 -75.6179 -20.0245L-73.7974 -19.5044C-72.0802 -19.0138 -70.8963 -17.4442 -70.8963 -15.6583V-7.01987L-70.474 -12.0871C-70.282 -14.3917 -68.1814 -16.0537 -65.8945 -15.7107L-57.1738 -14.4025C-55.598 -14.1662 -54.3128 -13.0171 -53.9022 -11.4775L-51.4702 -2.35761L-49.5983 -8.59733C-49.3035 -9.58004 -48.6424 -10.4119 -47.7516 -10.9209L-44.9123 -12.5433C-44.1272 -12.992 -43.2133 -13.1613 -42.3195 -13.0239L-34.52 -11.8239C-33.9136 -11.7306 -33.3369 -11.4991 -32.8343 -11.1474L-26.7494 -6.88793C-26.1467 -6.46604 -25.4415 -6.21862 -24.7072 -6.173C-20.3285 -5.90094 -13.1879 -5.46578 -12.6181 -5.46578C-12.0858 -5.46578 -9.23611 -2.80653 -7.28978 -0.903925C-6.70798 -0.335182 -5.97295 0.051487 -5.17245 0.197031L1.47153 1.40503C1.91769 1.48615 2.34589 1.64277 2.74113 1.86506C4.68094 2.95599 7.80229 4.63577 8.36198 4.63577C8.86307 4.63577 14.4466 6.31871 18.7639 7.64973C20.4358 8.16518 21.5717 9.7122 21.5717 11.4617V14.1758C21.5717 14.5158 21.7762 14.8225 22.09 14.9533Z" fill="#B9CCD1"/>
<path d="M-51.4702 -2.35761L-49.5983 -8.59733C-49.3035 -9.58004 -48.6424 -10.4119 -47.7516 -10.9209L-44.9123 -12.5433C-44.1272 -12.992 -43.2133 -13.1613 -42.3195 -13.0239L-34.5199 -11.8239C-33.9136 -11.7306 -33.3369 -11.4991 -32.8343 -11.1474L-26.7494 -6.88793C-26.1467 -6.46604 -25.4415 -6.21862 -24.7072 -6.173C-20.3285 -5.90094 -13.1879 -5.46578 -12.6181 -5.46578C-12.0858 -5.46578 -9.23612 -2.80653 -7.28979 -0.903924C-6.70797 -0.335182 -5.97295 0.0514872 -5.17246 0.197032L1.47153 1.40503C1.9177 1.48615 2.34588 1.64276 2.74114 1.86506C4.68093 2.95599 7.80229 4.63577 8.36199 4.63577C8.86307 4.63577 14.4466 6.31871 18.7639 7.64974C20.4358 8.16518 21.5717 9.7122 21.5717 11.4617V14.1758C21.5717 14.5158 21.7762 14.8225 22.09 14.9533L24.2866 15.8685C24.999 16.1654 23.9028 17.0737 23.9028 17.8455V17.8455C23.9028 18.4671 -26.3459 4.63577 -51.4702 -2.35761ZM-51.4702 -2.35761L-53.9022 -11.4775C-54.3128 -13.0171 -55.598 -14.1662 -57.1738 -14.4025L-65.8945 -15.7107C-68.1814 -16.0537 -70.282 -14.3917 -70.474 -12.0871L-70.8963 -7.01987M-51.4702 -2.35761L-70.8963 -5.46578M-70.8963 -7.01987V-15.6583C-70.8963 -17.4442 -72.0802 -19.0138 -73.7974 -19.5044L-75.6179 -20.0245C-76.0923 -20.1601 -76.5876 -20.2067 -77.0789 -20.162L-82.8273 -19.6394C-84.117 -19.5222 -85.3836 -20.0366 -86.2264 -21.0198L-88.5183 -23.6937C-89.1782 -24.4636 -90.1059 -24.9541 -91.1136 -25.0661L-94.9642 -25.4939C-95.9756 -25.6063 -96.9919 -25.329 -97.806 -24.7184L-99.2402 -23.6428C-101.107 -22.243 -103.777 -22.7957 -104.935 -24.8213V-24.8213C-105.521 -25.8478 -106.544 -26.5507 -107.713 -26.7304L-114.43 -27.7639C-115.417 -27.9158 -116.426 -27.6927 -117.257 -27.1386L-119.34 -25.7496C-120.168 -25.1977 -120.761 -24.3569 -121.002 -23.3916L-121.952 -19.5916C-122.103 -18.9891 -122.111 -18.3599 -121.976 -17.7537L-120.627 -11.6821M-70.8963 -7.01987V-5.46578M-120.627 -11.6821L-122.288 -16.1116C-122.691 -17.1864 -123.719 -17.8985 -124.867 -17.8985V-17.8985C-126.387 -17.8985 -127.62 -19.1314 -127.62 -20.6523V-22.1119C-127.62 -24.1402 -129.139 -25.8475 -131.153 -26.0845L-138.482 -26.9467C-139.93 -27.1171 -141.357 -26.4858 -142.204 -25.2991L-144.049 -22.7158C-144.485 -22.1066 -144.74 -21.3875 -144.787 -20.6404L-145.218 -13.7358C-145.365 -11.3835 -143.457 -9.4146 -141.101 -9.48822L-120.627 -10.128M-120.627 -11.6821V-10.128M-120.627 -10.128C-104.05 -9.35099 -70.8963 -7.33068 -70.8963 -5.46578" stroke="black"/>
<path d="M-39.8145 118.861C-174.543 42.5151 -390.381 204.601 -508.791 321.058C-521.627 333.682 -543.994 325.019 -544.368 307.018L-547.74 144.588C-547.899 136.931 -543.672 129.856 -536.854 126.368L-481.174 97.8808L-374.72 51.2583L-315.746 22.8913C-314.145 22.121 -312.448 21.5676 -310.7 21.2456L-138.524 -10.471C-136.959 -10.7594 -135.365 -10.8598 -133.776 -10.7703L-82.6765 -7.89148C-81.5594 -7.82854 -80.4494 -7.67196 -79.3584 -7.42338L-19.6115 6.18985L37.0012 21.2866C38.1095 21.5821 39.2319 21.7804 40.3743 21.8842C52.664 23.0006 76.3968 25.3915 85.2892 27.17C93.5233 28.8168 112.462 53.6105 123.914 70.0882C126.608 73.9656 127.734 78.6972 127.202 83.3888L126.553 89.1122C125.853 95.2778 128.055 101.419 132.513 105.736L140.459 113.43L148.489 119.849C153.236 123.645 156 129.393 156 135.471V141.253C156 142.746 155.833 144.235 155.501 145.691L154.105 151.828C153.815 153.102 153.401 154.345 152.868 155.538L142.103 179.672C141.018 182.103 139.459 184.293 137.516 186.114L133.506 189.874C129.986 193.174 125.341 195.011 120.516 195.011C117.288 195.011 114.113 194.188 111.291 192.621L82.161 176.437C81.1403 175.87 80.0718 175.394 78.968 175.013L15.2256 153.033C13.763 152.528 12.3638 151.856 11.0562 151.029L-39.8145 118.861Z" fill="#ABD1CB" stroke="black" stroke-width="4"/>
<path d="M76.0988 42.16L71.0995 42.4279C69.2505 42.5269 67.7112 43.8821 67.3786 45.7036L67.1058 47.1974C67.0061 47.7435 67.0211 48.3044 67.1499 48.8443L68.4438 54.267C68.487 54.4483 68.5523 54.6236 68.6381 54.7891C68.916 55.325 69.3943 55.7294 69.969 55.9141L73.5417 57.0624C73.9373 57.1896 74.3502 57.2543 74.7657 57.2543H78.1764C78.8514 57.2543 79.5168 57.0863 80.1004 56.747C81.4487 55.9631 83.1463 54.8891 83.1463 54.54V49.4932C83.1463 48.5453 82.8096 47.6287 82.1963 46.9059L79.3628 43.5664C78.5543 42.6135 77.3468 42.0932 76.0988 42.16Z" fill="black" stroke="black"/>
<path d="M135.553 130V30.4688H163.648C172.307 30.4688 179.964 32.3828 186.617 36.2109C193.271 40.0391 198.398 45.485 201.998 52.5488C205.644 59.6126 207.49 67.7246 207.535 76.8848V83.2422C207.535 92.6302 205.712 100.856 202.066 107.92C198.466 114.984 193.294 120.407 186.549 124.189C179.85 127.972 172.034 129.909 163.102 130H135.553ZM148.678 41.2695V119.268H162.486C172.604 119.268 180.465 116.123 186.07 109.834C191.721 103.545 194.547 94.5898 194.547 82.9688V77.1582C194.547 65.8561 191.881 57.0833 186.549 50.8398C181.262 44.5508 173.743 41.3607 163.99 41.2695H148.678ZM239.186 130H226.539V56.0352H239.186V130ZM225.514 36.416C225.514 34.3652 226.129 32.6335 227.359 31.2207C228.635 29.8079 230.504 29.1016 232.965 29.1016C235.426 29.1016 237.294 29.8079 238.57 31.2207C239.846 32.6335 240.484 34.3652 240.484 36.416C240.484 38.4668 239.846 40.1758 238.57 41.543C237.294 42.9102 235.426 43.5938 232.965 43.5938C230.504 43.5938 228.635 42.9102 227.359 41.543C226.129 40.1758 225.514 38.4668 225.514 36.416ZM321.969 93.8379C321.969 105.094 319.394 114.163 314.244 121.045C309.094 127.926 302.122 131.367 293.326 131.367C284.348 131.367 277.285 128.519 272.135 122.822V158.438H259.488V56.0352H271.041L271.656 64.2383C276.806 57.8581 283.961 54.668 293.121 54.668C302.008 54.668 309.026 58.0176 314.176 64.7168C319.371 71.416 321.969 80.7357 321.969 92.6758V93.8379ZM309.322 92.4023C309.322 84.0625 307.545 77.4772 303.99 72.6465C300.436 67.8158 295.559 65.4004 289.361 65.4004C281.705 65.4004 275.963 68.7956 272.135 75.5859V110.928C275.917 117.673 281.705 121.045 289.498 121.045C295.559 121.045 300.367 118.652 303.922 113.867C307.522 109.036 309.322 101.882 309.322 92.4023ZM351.842 130H339.195V25H351.842V130ZM368.795 92.334C368.795 85.0879 370.208 78.571 373.033 72.7832C375.904 66.9954 379.869 62.5293 384.928 59.3848C390.032 56.2402 395.842 54.668 402.359 54.668C412.431 54.668 420.566 58.1543 426.764 65.127C433.007 72.0996 436.129 81.3737 436.129 92.9492V93.8379C436.129 101.038 434.739 107.51 431.959 113.252C429.225 118.949 425.283 123.392 420.133 126.582C415.029 129.772 409.15 131.367 402.496 131.367C392.47 131.367 384.335 127.881 378.092 120.908C371.894 113.936 368.795 104.707 368.795 93.2227V92.334ZM381.51 93.8379C381.51 102.041 383.401 108.626 387.184 113.594C391.012 118.561 396.116 121.045 402.496 121.045C408.922 121.045 414.026 118.538 417.809 113.525C421.591 108.467 423.482 101.403 423.482 92.334C423.482 84.222 421.546 77.6595 417.672 72.6465C413.844 67.5879 408.74 65.0586 402.359 65.0586C396.116 65.0586 391.08 67.5423 387.252 72.5098C383.424 77.4772 381.51 84.5866 381.51 93.8379Z" fill="#666666"/>
</g>
<defs>
<clipPath id="clip0">
<rect width="443" height="211" fill="white"/>
</clipPath>
</defs>
</svg>
